<?xml version="1.0" encoding="UTF-8"?>
<svg id="Calque_1" xmlns="http://www.w3.org/2000/svg" version="1.1" viewBox="0 0 64 64">
  <!-- Generator: Adobe Illustrator 29.7.0, SVG Export Plug-In . SVG Version: 2.1.1 Build 138)  -->
  <defs>
    <style>
      .st0 {
        fill: #ffea00;
      }
    </style>
  </defs>
  <path class="st0" d="M60.19,24.34c-.13-.12-.2-.27-.23-.43-.52-2.61-1.43-4.84-2.66-6.49-2-2.66-4.23-3.22-5.75-3.22-.58,0-1.31.09-2.09.36h0c-.39-.61-.81-1.14-1.27-1.6-.14-.13-.22-.3-.25-.47-.33-2.05-.87-3.94-1.62-5.54-2.15-4.64-5.18-5.33-6.79-5.33h-.46l-.09.03c-.47.04-1.01.16-1.61.38-.71.27-1.5-.21-1.48-.88v-.02c0-.5-.43-.91-1-.95l-2.7-.18h-.16l-2.91.2c-.57.03-1,.46-.99.95h0c0,.67-.77,1.15-1.47.89-.62-.24-1.2-.36-1.7-.39l-.46-.02c-1.61,0-4.64.69-6.79,5.33-.74,1.59-1.29,3.48-1.62,5.54-.03.18-.11.33-.25.48-.29.29-.57.61-.84.97s-.71.52-1.17.42c-.51-.11-.96-.16-1.37-.16-1.52,0-3.76.55-5.77,3.22-1.24,1.65-2.15,3.87-2.66,6.49-.03.16-.11.31-.23.43-2.36,2.4-3.79,6.86-3.79,12.05,0,4.47,1.2,10.13,4.47,12.68v.24l1.42.61c.72.31,1.47.47,2.24.47,3.97,0,6.98-3.98,7.88-10.39.11-.79.19-1.59.23-2.4.11.09.23.19.34.27-.03.12-.05.26-.06.38-.24,1.42-.37,2.91-.37,4.43,0,7.08,2.84,14.25,8.25,14.25.23,0,.48-.01.76-.06,1.18,4.42,3.71,7.11,6.88,7.11s5.69-2.7,6.88-7.11c.24.03.47.04.67.04,5.41,0,8.25-7.17,8.25-14.25,0-1.52-.13-3.02-.37-4.44-.03-.12-.05-.24-.06-.37.11-.09.23-.18.33-.27.04.82.11,1.62.23,2.41.9,6.4,3.92,10.39,7.88,10.39.77,0,1.52-.16,2.24-.47l1.42-.61v-.23c3.27-2.55,4.47-8.21,4.47-12.68,0-5.19-1.42-9.65-3.79-12.06h-.03ZM39.6,52.5s-.3-.13-.65-.5l-2.27-2.45c-.61-.65-1.82-.33-1.91.51l-.33,3.14c-.25,2.45-.89,4.14-1.47,5.16-.39.69-1.52.69-1.91,0-.6-1.03-1.23-2.73-1.47-5.23l-.32-3.24c-.09-.85-1.32-1.18-1.93-.5l-2.28,2.57c-.37.41-.63.54-.66.55-.95-.19-3.19-3.76-3.19-9.81,0-1.3.1-2.56.32-3.76.09-.55.22-1.1.35-1.62l.53-1.99,1.37.17c.6.07,1.19.04,1.77-.06.46-.08.9.12,1.12.48l.62,1.01c.46.74,1.71.62,1.98-.18l1-2.97c.23-.68.49-1.28.79-1.75l.08-.12c.39-.64.71-.9.84-.98h0c.14.09.48.38.9,1.07l.13.21c.25.46.48.98.68,1.58l1,2.97c.27.81,1.52.92,1.98.18l.62-1.01c.22-.36.67-.55,1.12-.48.58.1,1.18.12,1.79.06l1.37-.17.53,1.98c.14.51.25,1.05.35,1.62.2,1.2.32,2.46.32,3.76,0,6.05-2.24,9.62-3.17,9.81h.01ZM55.84,45.96h0c-.56-.19-2.22-2.04-2.85-6.48-.14-.99-.22-2.02-.22-3.07,0-.69.03-1.37.09-2.02l.11-1.22-1.12-.73c-.34-.22-.71-.43-1.13-.63-.81-.39-1.66-.62-2.51-.72l-1.12-.12c-.48-.06-.95.19-1.14.59l-.42.92c-.75,1.64-1.5,2.15-1.7,2.21l-.56.14-1.09-2.35c-.3-.65-.56-1.4-.77-2.22-.06-.22-.11-.44-.16-.69-.11-.54-.22-1.12-.29-1.72l-.2-1.56c-.08-.6-.76-.98-1.41-.79l-1.63.48c-.14-.26-.29-.55-.43-.88l-1.7-3.86c-.38-.87-1.81-.78-2.05.12l-1.09,4.03c-.14.52-.3,1-.48,1.43-.18-.43-.34-.91-.48-1.43l-1.12-4.11c-.25-.91-1.69-.99-2.05-.11l-1.67,3.96c-.04.09-.09.19-.13.28-.1.21-.2.4-.29.58l-1.63-.48c-.65-.19-1.33.2-1.41.79l-.2,1.56c-.08.61-.18,1.19-.29,1.74-.05.23-.1.47-.16.69-.22.81-.47,1.55-.77,2.21l-1.09,2.35-.56-.14c-.2-.06-.95-.57-1.7-2.21l-.42-.91c-.18-.4-.65-.63-1.13-.59l-1.12.11c-.86.09-1.71.33-2.53.72-.41.2-.77.4-1.12.62l-1.13.73.11,1.22c.06.65.09,1.33.09,2.02,0,1.04-.08,2.08-.22,3.07-.39,2.8-1.24,4.65-1.95,5.64-.41.57-1.37.58-1.79,0-1.01-1.39-2.18-4.37-2.18-8.72,0-4.81,1.48-8.46,2.88-9.43l.79-.55.13-.88c.35-2.36,1.09-4.37,2.05-5.66.72-.97,1.32-1.22,1.52-1.22.24,0,.71.21,1.29.79l1.71,1.69c.56.55,1.58.36,1.84-.34l.77-2.15c.27-.73.57-1.38.91-1.91.43-.69.8-.99.98-1.1l.89-.59.11-.97c.24-2.06.74-3.94,1.43-5.44.86-1.86,1.77-2.51,2.07-2.55h.04c.29,0,1.38.75,2.34,3.14l1.7,4.19c.35.89,1.82.81,2.07-.11l1.1-4.35c.09-.36.19-.69.29-1,.1.31.2.64.29,1l1.1,4.36c.24.92,1.71,1,2.07.11l1.7-4.21c.96-2.4,2.05-3.15,2.34-3.15h.04c.29.06,1.19.69,2.07,2.56.7,1.49,1.19,3.37,1.42,5.44l.11.97.89.59c.18.12.54.42.98,1.1.33.53.65,1.18.91,1.91l.77,2.14c.25.7,1.28.89,1.84.34l1.7-1.69c.58-.58,1.05-.79,1.31-.79.22,0,.8.26,1.52,1.22.96,1.29,1.7,3.31,2.05,5.67l.13.88.79.55c1.39.99,2.88,4.63,2.88,9.43,0,5.74-2.03,9.1-3.05,9.54h.05Z"/>
</svg>